# xmcd
#
# Track frame offsets:
#	150
#	18107
#	30372
#	52182
#
# Disc length: 982 seconds
#
# Revision: 1
# Processed by: cddbd v1.5.1PL0 Copyright (c) Steve Scherf et al.
# Submitted via: audiograbber 1.80
#
DISCID=2503d404
DTITLE=One Way - Some Larry Norman songs according to
DYEAR=1900
DGENRE=
TTITLE0=I Wish We'd All Been Ready (radio)
TTITLE1=Why Should The Devil Have All The Good Music
TTITLE2=Sweet Sweet Song Of Salvation
TTITLE3=I Wish We'd All Been Ready
EXTD=
EXTT0=
EXTT1=
EXTT2=
EXTT3=
PLAYORDER=
